<?xml version="1.0" encoding="utf-8"?>
<!-- Generator: Adobe Illustrator 25.2.1, SVG Export Plug-In . SVG Version: 6.00 Build 0)  -->
<svg version="1.1" id="Warstwa_1" xmlns="http://www.w3.org/2000/svg" xmlns:xlink="http://www.w3.org/1999/xlink" x="0px" y="0px"
	 width="73.9px" height="61.1px" viewBox="0 0 73.9 61.1" style="enable-background:new 0 0 73.9 61.1;" xml:space="preserve">
<g>
	<g>
		<polygon points="64.5,41 19,41 8.2,4 0,4 0,0 11.2,0 22,37 61.5,37 70.1,8.3 73.9,9.4 		"/>
		<path d="M29.5,61.1c-4.7,0-8.5-3.8-8.5-8.5s3.8-8.5,8.5-8.5s8.5,3.8,8.5,8.5S34.2,61.1,29.5,61.1z M29.5,48.1
			c-2.5,0-4.5,2-4.5,4.5s2,4.5,4.5,4.5s4.5-2,4.5-4.5S32,48.1,29.5,48.1z"/>
		<path d="M57.6,61.1c-4.7,0-8.5-3.8-8.5-8.5s3.8-8.5,8.5-8.5s8.5,3.8,8.5,8.5S62.3,61.1,57.6,61.1z M57.6,48.1
			c-2.5,0-4.5,2-4.5,4.5s2,4.5,4.5,4.5s4.5-2,4.5-4.5S60.1,48.1,57.6,48.1z"/>
	</g>
</g>
</svg>
