<svg id="Warstwa_1" data-name="Warstwa 1" xmlns="http://www.w3.org/2000/svg" viewBox="0 0 182.9665 43.06329"><title>logo www</title><path d="M43.15344,42.59744H31.26506v-.62811c1.98314-.56923,2.08848-2.86512,2.08848-5.52218V26.18075c0-2.97177-.99386-4.38175-3.07776-4.38175-1.61739,0-4.58393,1.66842-4.63365,3.38789V36.44715c0,2.86512.31274,5.05567,2.1382,5.52218v.62811H15.8913v-.62811c1.98183-.56923,2.08848-2.86512,2.08848-5.52218V26.18075c0-2.97177-.9389-4.38175-3.02673-4.38175-1.56243,0-4.26856,1.66842-4.57934,3.12487V36.55249c0,2.86512.2604,4.89864,2.13428,5.41684v.62811H.62354v-.62811C2.608,41.4001,2.65706,39.2102,2.65706,36.55249V24.45605c0-1.8248-.52147-2.65705-2.65706-3.59857v-.67522l10.37371-2.13494v6.04953c1.302-2.8697,5.10277-6.04953,8.17923-6.04953,3.64633,0,6.35835,2.39861,6.98188,6.35966,1.14958-3.1288,5.21139-6.35966,8.39122-6.35966,4.11742,0,7.08723,1.66385,7.08723,7.92013v10.4797c0,2.86512.31536,5.05567,2.14017,5.52218Z"/><path d="M58.27,43.06329c-8.59928,0-12.92411-5.6792-12.92411-12.50733,0-6.88113,4.32483-12.508,12.92411-12.508,8.6562,0,12.93,5.62686,12.93,12.508,0,6.82813-4.27379,12.50733-12.93,12.50733m0-24.84847c-3.28125,0-3.80336,2.90568-3.80336,12.34114,0,9.43481.52211,12.28815,3.80336,12.28815,3.28582,0,3.80663-2.85334,3.80663-12.28815,0-9.43546-.52081-12.34114-3.80663-12.34114"/><path d="M87.66721,43.06329c-8.59864,0-12.92347-5.6792-12.92347-12.50733,0-6.88113,4.32483-12.508,12.92347-12.508,8.65554,0,12.93,5.62686,12.93,12.508,0,6.82813-4.27445,12.50733-12.93,12.50733m0-24.84847c-3.27994,0-3.80337,2.90568-3.80337,12.34114,0,9.43481.52343,12.28815,3.80337,12.28815,3.28516,0,3.80663-2.85334,3.80663-12.28815,0-9.43546-.52147-12.34114-3.80663-12.34114"/><path d="M130.52556,42.59744h-11.8838v-.62811c1.97725-.56923,2.08194-2.86512,2.08194-5.52218V26.18075c0-2.76829-1.35307-4.38175-3.9074-4.38175a4.33475,4.33475,0,0,0-3.75691,3.18048v11.573c0,2.86512.26237,4.89864,2.13952,5.41684v.62811H103.3151v-.62811c1.98118-.56923,2.03352-2.75913,2.03352-5.41684V24.30426c0-1.8248-.52277-2.50526-2.657-3.44678v-.67522l10.36781-2.13494v6.24451c1.253-2.97243,4.69384-6.24451,7.767-6.24451,4.48382,0,7.559,1.66385,7.559,7.92013v10.4797c0,2.86512.263,5.05567,2.14018,5.52218Z"/><path d="M147.27332,42.59744H135.38756v-.62811c1.9779-.62419,2.08521-2.81082,2.08521-5.47114V24.35464c0-1.82546-.57316-2.55564-2.712-3.49716v-.67522l10.3737-2.13494V36.49819c0,2.86446.263,4.95294,2.13887,5.47114Z"/><path d="M141.32428,1.06329a3.77761,3.77761,0,1,1,0,7.55505,3.7776,3.7776,0,1,1,0-7.555"/><path d="M158.27369,31.61119c3.2191,5.66612,6.71822,6.75158,10.17219,5.81268,2.69238-.71252,5.50255-3.66138,4.91369-7.23313l.71972-.089c.88525,3.24918-.34286,8.30812-6.33742,11.46178-6.043,3.17656-13.28529.39322-16.34341-5.41814-3.787-7.20042-.66083-13.90751,5.33438-17.06182,5.8153-3.06075,10.97567-2.56742,15.1487,5.36842Zm7.30839-4.34053c-3.06142-5.81529-6.22554-8.80407-8.5319-7.58579-2.44377,1.283-1.27127,7.08722,1.058,11.5187Z"/><path d="M177.532,38.66891a2.81035,2.81035,0,0,1,.61372-.88852,2.87169,2.87169,0,0,1,.90292-.59082,2.828,2.828,0,0,1,3.69213,1.47934,2.70922,2.70922,0,0,1,.22573,1.1064A2.7718,2.7718,0,0,1,182.74077,40.9a2.85619,2.85619,0,0,1-.60979.89571,2.7455,2.7455,0,0,1-.89571.59082,2.94219,2.94219,0,0,1-2.18663,0,2.78393,2.78393,0,0,1-.90292-.59082A2.83453,2.83453,0,0,1,177.532,40.9a2.783,2.783,0,0,1-.22573-1.12472,2.72023,2.72023,0,0,1,.22573-1.1064m.46324,2.06558a2.33764,2.33764,0,0,0,.4894.76355,2.26545,2.26545,0,0,0,.73739.50838,2.29021,2.29021,0,0,0,.92189.18451,2.24831,2.24831,0,0,0,.91076-.18451,2.28673,2.28673,0,0,0,.73412-.50838,2.336,2.336,0,0,0,.48874-.76355,2.55266,2.55266,0,0,0,.17732-.95918,2.48458,2.48458,0,0,0-.17732-.94086,2.27642,2.27642,0,0,0-1.22286-1.26081,2.24831,2.24831,0,0,0-.91076-.18451,2.29649,2.29649,0,0,0-1.65928.68831,2.32211,2.32211,0,0,0-.4894.757,2.485,2.485,0,0,0-.1773.94086,2.553,2.553,0,0,0,.1773.95918m2.32205-2.59293a1.3461,1.3461,0,0,1,.8689.23357.86624.86624,0,0,1,.28265.70729.79905.79905,0,0,1-.24863.651,1.11449,1.11449,0,0,1-.617.24471l.94086,1.45251h-.5496l-.89571-1.41456H179.557v1.41456h-.5123V38.14156Zm-.22571,1.46036c.11515,0,.22441-.00392.32715-.01112a.8514.8514,0,0,0,.27479-.06412.437.437,0,0,0,.19236-.16161.56076.56076,0,0,0,.07066-.3049.4725.4725,0,0,0-.06411-.26367.43857.43857,0,0,0-.16489-.15049.72368.72368,0,0,0-.23358-.07132,1.85433,1.85433,0,0,0-.25975-.019H179.557v1.0462Z"/></svg>