<?xml version="1.0" encoding="utf-8"?>
<!-- Generator: Adobe Illustrator 25.2.1, SVG Export Plug-In . SVG Version: 6.00 Build 0)  -->
<svg version="1.1" id="Warstwa_1" xmlns="http://www.w3.org/2000/svg" xmlns:xlink="http://www.w3.org/1999/xlink" x="0px" y="0px"
	 width="79.2px" height="85.6px" viewBox="0 0 79.2 85.6" style="enable-background:new 0 0 79.2 85.6;" xml:space="preserve">
<path d="M79.2,85.6H0.4l-0.3-1.7C0,83.3-2,69.5,19.9,64.2c1.3-0.8,2.5-1.4,3.5-1.9c4.1-2.1,4.9-2.6,4.9-9c-0.1-0.5-0.9-2-1.4-3.1
	c-1.3-2.7-2.8-5.6-3.1-8.2c-2.4-1.7-3.7-3.6-4-5.7c-0.3-2,0.4-4.1,2.1-6.2c0-0.1,0-0.2-0.1-0.2c-1.3-5.5-3.6-15.9,1.6-22.9
	c2.9-4,7.8-6.3,14.5-6.8c8.8-0.3,14.4,1.4,17.7,5.2c3.9,4.5,4.6,11.5,2.5,24.2c1.1,1.7,2.5,4.9,1.6,8c-0.6,2-2,3.5-4.1,4.6
	c-0.4,3.5-1.7,7.2-4,10.7c0,0.1,0,0.1,0,0.2c-0.1,3.2-0.4,9.8,14.7,13.6l0.3,0.1l1.6,0.9c9.3,5.2,10.9,6.3,11,16L79.2,85.6z
	 M4.1,81.6h71.1c-0.2-5.7-1.1-6.2-8.9-10.6l-1.1-0.6c-18-4.6-17.6-14-17.5-17.6c0-0.3,0-0.5,0-0.7v-0.6L48,51
	c2.3-3.4,3.6-7,3.7-10.3l0-1.3l1.2-0.5c1.6-0.6,2.6-1.5,2.9-2.6c0.5-1.6-0.4-3.8-1.5-5.3l-0.5-0.7l0.1-0.8c2-11.7,1.6-18.2-1.5-21.7
	C50.1,5,45.5,3.8,38.1,4c-5.4,0.4-9.2,2.2-11.5,5.2c-4.1,5.6-2,14.8-0.9,19.7c0.1,0.4,0.2,0.9,0.3,1.2l0.2,1l-0.7,0.8
	c-1.3,1.5-1.9,2.8-1.8,3.8c0.2,1.1,1.2,2.3,3.1,3.5l1,0.7l-0.1,1.2c-0.2,1.7,1.5,5.1,2.7,7.3c1.1,2.3,1.8,3.6,1.9,4.7l0,0.1
	c0,8.6-2.2,10.1-7.1,12.6c-1,0.5-2.2,1.2-3.6,2L21.4,68L21.1,68C6.9,71.4,4.4,78.4,4.1,81.6z"/>
</svg>
